# xmcd CD database file
#
# Track frame offsets:
#	150
#	7153
#	23419
#	41407
#	57091
#	75080
#	79637
#	95892
#	116042
#	134020
#	150205
#	155677
#	173079
#	190600
#	209129
#	228817
#	234055
#	254215
#
# Disc length: 3483 seconds
#
# Revision: 0
# Processed by: cddbd v1.4PL0 Copyright (c) Steve Scherf et al.
# Submitted via: Feurio! 1.65 - http://www.feurio.com
#
DISCID=db0d9912
DTITLE=Eins, Zwo - Zwei (YPS7046-2)
DYEAR=1900
DGENRE=
TTITLE0=Eins  Zwo - Intro
TTITLE1=Bombe
TTITLE2=Rechte Dritter
TTITLE3=Undsoweiter
TTITLE4=Ey du
TTITLE5=Dendelude
TTITLE6=Extrablatt
TTITLE7=Unschuld vom Lande
TTITLE8=Der Eine and Der Andere
TTITLE9=Altes Lied von und mit Mutter Natur
TTITLE10=Dendelude 2
TTITLE11=Aha
TTITLE12=Vatertag
TTITLE13=Discjockeys
TTITLE14=Generation T
TTITLE15=Dendelude 3
TTITLE16=Schon unterwegs
TTITLE17=Outro
EXTD=
EXTT0=
EXTT1=
EXTT2=
EXTT3=
EXTT4=
EXTT5=
EXTT6=
EXTT7=
EXTT8=
EXTT9=
EXTT10=
EXTT11=
EXTT12=
EXTT13=
EXTT14=
EXTT15=
EXTT16=
EXTT17=
PLAYORDER=
